<svg xmlns="http://www.w3.org/2000/svg" x="0px" y="0px" width="48" height="48" viewBox="0,0,256,256"
style="fill:#000000;">
<g fill="none" fill-rule="nonzero" stroke="none" stroke-width="1" stroke-linecap="butt" stroke-linejoin="miter" stroke-miterlimit="10" stroke-dasharray="" stroke-dashoffset="0" font-family="none" font-weight="none" font-size="none" text-anchor="none" style="mix-blend-mode: normal"><g transform="scale(5.33333,5.33333)"><path d="M42,37c0,2.762 -2.238,5 -5,5h-26c-2.761,0 -5,-2.238 -5,-5v-26c0,-2.762 2.239,-5 5,-5h26c2.762,0 5,2.238 5,5z" fill="#ffffff"></path><rect x="12" y="19" width="5" height="17" fill="#1cb3c8"></rect><path d="M14.485,17h-0.028c-1.492,0 -2.457,-1.112 -2.457,-2.501c0,-1.419 0.995,-2.499 2.514,-2.499c1.521,0 2.458,1.08 2.486,2.499c0,1.388 -0.965,2.501 -2.515,2.501z" fill="#1cb3c8"></path><path d="M36,36l-0.001,-9.726c0,-5.024 -2.683,-7.274 -6.261,-7.274c-1.652,0 -3.352,0.594 -4.738,1.938v-1.938h-5v17h5v-10.813l0.002,0.001c0.394,-0.978 1.305,-1.985 2.806,-1.985c1.967,0 3.192,1.5 3.192,3.698v9.099z" fill="#1cb3c8"></path></g></g>
</svg>